<?xml version="1.0" standalone="no"?>
<!DOCTYPE svg PUBLIC "-//W3C//DTD SVG 20010904//EN"
 "http://www.w3.org/TR/2001/REC-SVG-20010904/DTD/svg10.dtd">
<svg version="1.0" xmlns="http://www.w3.org/2000/svg"
 width="512.000000pt" height="512.000000pt" viewBox="0 0 512.000000 512.000000"
 preserveAspectRatio="xMidYMid meet">

<g transform="translate(0.000000,512.000000) scale(0.100000,-0.100000)"
fill="#000000" stroke="none">
<path d="M1370 4611 l0 -510 -512 -3 c-504 -4 -514 -4 -569 -26 -122 -49 -215
-139 -262 -252 l-22 -55 -3 -1254 c-2 -830 1 -1273 8 -1310 32 -175 181 -315
362 -341 35 -5 375 -10 756 -10 380 0 692 -3 692 -7 -1 -5 -38 -80 -83 -168
l-82 -160 -795 -2 c-564 -2 -801 -6 -816 -14 -44 -23 -55 -91 -30 -184 42
-158 145 -247 336 -292 71 -17 202 -18 2210 -18 2008 0 2139 1 2210 18 191 45
294 134 336 292 25 93 14 161 -30 184 -15 8 -252 12 -816 14 l-795 2 -82 160
c-45 88 -82 163 -83 168 0 4 312 7 693 7 380 0 720 5 755 10 181 26 330 166
362 341 7 37 10 480 8 1310 l-3 1254 -22 55 c-47 113 -140 203 -262 252 -55
22 -65 22 -568 26 l-513 3 0 510 0 509 -85 0 -85 0 0 -979 c0 -690 3 -987 11
-1010 18 -52 49 -61 216 -61 l148 0 -685 -412 c-416 -250 -695 -412 -710 -412
-15 0 -294 162 -710 412 l-685 412 148 0 c167 0 198 9 216 61 8 23 11 320 11
1010 l0 979 -85 0 -85 0 0 -509z m-10 -771 l0 -80 -465 0 c-496 0 -519 -2
-544 -48 -15 -29 -15 -2275 0 -2304 27 -50 -79 -48 2209 -48 2288 0 2182 -2
2209 48 15 29 15 2275 0 2304 -25 46 -48 48 -544 48 l-465 0 0 80 0 80 495 0
c536 0 526 1 600 -55 19 -15 47 -52 62 -83 l28 -57 3 -1229 c3 -1349 5 -1287
-57 -1373 -18 -24 -50 -51 -82 -67 l-53 -26 -2196 0 -2196 0 -53 26 c-32 16
-64 43 -82 67 -62 86 -60 24 -57 1373 l3 1229 28 57 c15 31 43 68 62 82 74 56
60 55 598 56 l497 0 0 -80z m0 -425 l0 -164 -269 -3 c-266 -3 -270 -3 -294
-26 -14 -13 -27 -34 -29 -47 -13 -65 -31 -52 891 -606 623 -373 880 -522 901
-522 21 0 278 149 901 522 922 554 904 541 891 606 -2 13 -15 34 -29 47 -24
23 -28 23 -294 26 l-269 3 0 164 0 165 420 0 420 0 0 -1020 0 -1020 -2040 0
-2040 0 0 1020 0 1020 420 0 420 0 0 -165z m1828 -2730 c45 -91 82 -167 82
-170 0 -3 -319 -5 -710 -5 -390 0 -710 2 -710 5 0 3 37 79 82 170 l83 165 545
0 545 0 83 -165z m1742 -361 c0 -9 -19 -36 -43 -59 -49 -50 -109 -71 -237 -85
-113 -13 -4067 -13 -4180 0 -128 14 -188 35 -237 85 -24 23 -43 50 -43 59 0
15 185 16 2370 16 2185 0 2370 -1 2370 -16z"/>
<path d="M4090 2135 l0 -85 -85 0 -85 0 0 -90 0 -90 85 0 85 0 0 -85 0 -85 90
0 90 0 0 85 0 85 85 0 85 0 0 90 0 90 -85 0 -85 0 0 85 0 85 -90 0 -90 0 0
-85z"/>
<path d="M2415 4934 c-214 -38 -364 -180 -420 -399 -26 -101 -37 -249 -25
-329 14 -99 75 -219 151 -300 32 -35 59 -66 59 -68 0 -3 -17 -8 -38 -12 -61
-9 -160 -65 -216 -120 -108 -109 -136 -202 -136 -463 l0 -173 90 0 90 0 0 183
c0 208 8 248 66 315 19 23 60 53 92 69 l57 28 375 0 375 0 57 -28 c32 -16 73
-46 92 -69 58 -67 66 -107 66 -315 l0 -183 90 0 90 0 0 173 c0 261 -28 354
-136 463 -56 55 -155 111 -216 120 -21 4 -38 9 -38 12 0 2 27 33 59 68 76 81
137 201 151 300 12 80 1 228 -25 329 -57 223 -206 362 -429 400 -107 18 -175
18 -281 -1z m311 -186 c78 -25 158 -92 191 -159 24 -49 55 -149 46 -149 -3 0
-65 36 -138 80 -73 44 -147 83 -165 86 -41 9 -72 -9 -99 -57 -54 -95 -174
-154 -378 -183 l-42 -6 6 37 c35 256 163 372 410 373 79 0 118 -5 169 -22z
m106 -435 c146 -87 148 -88 142 -118 -20 -98 -151 -250 -265 -307 -90 -45
-149 -55 -213 -35 -87 28 -146 66 -227 146 -65 65 -119 147 -119 180 0 4 28
12 63 15 163 18 329 82 412 159 28 25 52 46 54 47 3 0 72 -39 153 -87z"/>
</g>
</svg>
