<svg id="svg" version="1.1" xmlns="http://www.w3.org/2000/svg" xmlns:xlink="http://www.w3.org/1999/xlink" width="400" height="400" viewBox="0, 0, 400,400"><g id="svgg"><path id="path0" d="M182.227 0.593 C 65.185 11.308,-16.794 118.097,2.759 234.375 C 14.425 303.749,64.214 363.603,130.273 387.666 C 132.422 388.449,134.619 389.275,135.156 389.503 C 140.955 391.963,148.575 388.927,150.182 383.517 C 150.934 380.983,150.613 342.967,149.839 342.971 C 149.605 342.972,147.041 343.336,144.141 343.781 C 113.089 348.541,92.478 340.571,83.624 320.382 C 78.012 307.585,69.594 295.616,63.366 291.580 C 59.110 288.822,58.145 288.133,56.453 286.644 C 50.790 281.659,53.018 278.389,62.109 278.343 C 73.352 278.286,84.097 285.418,92.814 298.723 C 105.661 318.335,122.284 324.577,143.945 317.923 C 150.892 315.790,151.441 315.467,151.741 313.348 C 152.931 304.915,157.091 295.773,162.193 290.378 C 163.288 289.220,164.113 288.219,164.026 288.153 C 163.938 288.087,161.582 287.729,158.789 287.356 C 105.200 280.210,78.416 253.911,73.800 203.906 C 71.306 176.894,76.885 156.026,91.177 138.910 C 92.592 137.215,93.749 135.809,93.747 135.785 C 93.746 135.761,93.307 134.452,92.772 132.876 C 88.262 119.588,89.015 100.839,94.671 85.562 C 95.808 82.491,96.296 82.280,101.483 82.604 C 113.545 83.358,131.180 90.641,147.541 101.626 L 150.355 103.516 155.744 102.160 C 184.637 94.889,217.650 95.023,246.869 102.529 L 250.575 103.480 254.682 100.819 C 273.762 88.453,292.850 81.292,303.266 82.593 L 305.408 82.861 307.157 88.208 C 312.271 103.849,312.665 118.359,308.359 132.466 L 307.332 135.830 310.071 139.180 C 322.628 154.543,327.571 169.403,327.508 191.602 C 327.342 249.672,297.977 281.687,239.355 287.711 C 236.201 288.035,236.241 287.846,238.738 290.570 C 244.436 296.786,248.007 305.270,249.417 315.938 C 249.892 319.533,250.002 326.167,250.009 351.680 C 250.019 388.269,249.792 386.527,254.883 389.168 C 259.851 391.746,268.355 389.442,286.914 380.492 C 361.864 344.347,406.660 265.466,399.398 182.422 C 389.768 72.311,292.096 -9.465,182.227 0.593 " stroke="none" fill="#c4c4c4" fill-rule="evenodd"></path><path id="path1" d="" stroke="none" fill="#c8c4c4" fill-rule="evenodd"></path><path id="path2" d="" stroke="none" fill="#c8c4c4" fill-rule="evenodd"></path><path id="path3" d="" stroke="none" fill="#c8c4c4" fill-rule="evenodd"></path><path id="path4" d="" stroke="none" fill="#c8c4c4" fill-rule="evenodd"></path></g></svg>